grf
version=1
nRows=18
nColumns=46
inDegrees=yes
endheader
time	ground_force_1_vx	ground_force_1_vy	ground_force_1_vz	ground_force_1_px	ground_force_1_py	ground_force_1_pz	ground_moment_1_mx	ground_moment_1_my	ground_moment_1_mz	ground_force_2_vx	ground_force_2_vy	ground_force_2_vz	ground_force_2_px	ground_force_2_py	ground_force_2_pz	ground_moment_2_mx	ground_moment_2_my	ground_moment_2_mz	ground_force_3_vx	ground_force_3_vy	ground_force_3_vz	ground_force_3_px	ground_force_3_py	ground_force_3_pz	ground_moment_3_mx	ground_moment_3_my	ground_moment_3_mz	ground_force_4_vx	ground_force_4_vy	ground_force_4_vz	ground_force_4_px	ground_force_4_py	ground_force_4_pz	ground_moment_4_mx	ground_moment_4_my	ground_moment_4_mz	ground_force_5_vx	ground_force_5_vy	ground_force_5_vz	ground_force_5_px	ground_force_5_py	ground_force_5_pz	ground_moment_5_mx	ground_moment_5_my	ground_moment_5_mz
1.770000	0.000000	0.000000	0.000000	0.000000	0.000000	0.000000	0.000000	0.000000	0.000000	0.000000	0.000000	0.000000	0.000000	0.000000	0.000000	0.000000	0.000000	0.000000	0.000000	0.000000	0.000000	0.000000	0.000000	0.000000	0.000000	0.000000	0.000000	1.547544	472.504843	-43.493050	0.199231	0.000000	-0.892545	-0.000000	9.324395	0.000000	1.818025	431.259059	39.360490	0.229877	0.000000	-1.595304	-0.000000	-9.800118	-0.000000
1.770500	0.000000	0.000000	0.000000	0.000000	0.000000	0.000000	0.000000	0.000000	0.000000	0.000000	0.000000	0.000000	0.000000	0.000000	0.000000	0.000000	0.000000	0.000000	0.000000	0.000000	0.000000	0.000000	0.000000	0.000000	0.000000	0.000000	0.000000	1.562423	472.346800	-43.364051	0.199239	0.000000	-0.892553	-0.000000	9.324539	0.000000	1.847000	431.391575	39.262041	0.229868	0.000000	-1.595282	-0.000000	-9.805479	-0.000000
1.771000	0.000000	0.000000	0.000000	0.000000	0.000000	0.000000	0.000000	0.000000	0.000000	0.000000	0.000000	0.000000	0.000000	0.000000	0.000000	0.000000	0.000000	0.000000	0.000000	0.000000	0.000000	0.000000	0.000000	0.000000	0.000000	0.000000	0.000000	1.576725	472.188517	-43.234491	0.199245	0.000000	-0.892561	-0.000000	9.324769	0.000000	1.875177	431.524418	39.163055	0.229859	0.000000	-1.595259	-0.000000	-9.810910	-0.000000
1.771500	0.000000	0.000000	0.000000	0.000000	0.000000	0.000000	0.000000	0.000000	0.000000	0.000000	0.000000	0.000000	0.000000	0.000000	0.000000	0.000000	0.000000	0.000000	0.000000	0.000000	0.000000	0.000000	0.000000	0.000000	0.000000	0.000000	0.000000	1.590504	472.030306	-43.104375	0.199252	0.000000	-0.892569	-0.000000	9.325082	0.000000	1.902507	431.657541	39.063534	0.229850	0.000000	-1.595236	-0.000000	-9.816416	-0.000000
1.772000	0.000000	0.000000	0.000000	0.000000	0.000000	0.000000	0.000000	0.000000	0.000000	0.000000	0.000000	0.000000	0.000000	0.000000	0.000000	0.000000	0.000000	0.000000	0.000000	0.000000	0.000000	0.000000	0.000000	0.000000	0.000000	0.000000	0.000000	1.603819	471.872495	-42.973715	0.199258	0.000000	-0.892577	-0.000000	9.325476	0.000000	1.928947	431.790903	38.963477	0.229841	0.000000	-1.595213	-0.000000	-9.821999	-0.000000
1.772500	0.000000	0.000000	0.000000	0.000000	0.000000	0.000000	0.000000	0.000000	0.000000	0.000000	0.000000	0.000000	0.000000	0.000000	0.000000	0.000000	0.000000	0.000000	0.000000	0.000000	0.000000	0.000000	0.000000	0.000000	0.000000	0.000000	0.000000	1.616737	471.715423	-42.842527	0.199264	0.000000	-0.892585	-0.000000	9.325948	0.000000	1.954457	431.924465	38.862884	0.229832	0.000000	-1.595190	-0.000000	-9.827660	-0.000000
1.773000	0.000000	0.000000	0.000000	0.000000	0.000000	0.000000	0.000000	0.000000	0.000000	0.000000	0.000000	0.000000	0.000000	0.000000	0.000000	0.000000	0.000000	0.000000	0.000000	0.000000	0.000000	0.000000	0.000000	0.000000	0.000000	0.000000	0.000000	1.629329	471.559439	-42.710830	0.199269	0.000000	-0.892594	-0.000000	9.326495	0.000000	1.978995	432.058192	38.761760	0.229823	0.000000	-1.595166	-0.000000	-9.833401	-0.000000
1.773500	0.000000	0.000000	0.000000	0.000000	0.000000	0.000000	0.000000	0.000000	0.000000	0.000000	0.000000	0.000000	0.000000	0.000000	0.000000	0.000000	0.000000	0.000000	0.000000	0.000000	0.000000	0.000000	0.000000	0.000000	0.000000	0.000000	0.000000	1.641673	471.404891	-42.578642	0.199274	0.000000	-0.892602	-0.000000	9.327117	0.000000	2.002525	432.192055	38.660117	0.229814	0.000000	-1.595142	-0.000000	-9.839223	-0.000000
1.774000	0.000000	0.000000	0.000000	0.000000	0.000000	0.000000	0.000000	0.000000	0.000000	0.000000	0.000000	0.000000	0.000000	0.000000	0.000000	0.000000	0.000000	0.000000	0.000000	0.000000	0.000000	0.000000	0.000000	0.000000	0.000000	0.000000	0.000000	1.653850	471.252117	-42.445977	0.199278	0.000000	-0.892611	-0.000000	9.327810	0.000000	2.025017	432.326022	38.557974	0.229805	0.000000	-1.595118	-0.000000	-9.845127	-0.000000
1.774500	0.000000	0.000000	0.000000	0.000000	0.000000	0.000000	0.000000	0.000000	0.000000	0.000000	0.000000	0.000000	0.000000	0.000000	0.000000	0.000000	0.000000	0.000000	0.000000	0.000000	0.000000	0.000000	0.000000	0.000000	0.000000	0.000000	0.000000	1.665942	471.101434	-42.312845	0.199283	0.000000	-0.892619	-0.000000	9.328574	0.000000	2.046454	432.460060	38.455356	0.229797	0.000000	-1.595094	-0.000000	-9.851113	-0.000000
1.775000	0.000000	0.000000	0.000000	0.000000	0.000000	0.000000	0.000000	0.000000	0.000000	0.000000	0.000000	0.000000	0.000000	0.000000	0.000000	0.000000	0.000000	0.000000	0.000000	0.000000	0.000000	0.000000	0.000000	0.000000	0.000000	0.000000	0.000000	1.678034	470.953120	-42.179253	0.199286	0.000000	-0.892629	-0.000000	9.329406	0.000000	2.066829	432.594124	38.352297	0.229788	0.000000	-1.595070	-0.000000	-9.857177	-0.000000
1.775500	0.000000	0.000000	0.000000	0.000000	0.000000	0.000000	0.000000	0.000000	0.000000	0.000000	0.000000	0.000000	0.000000	0.000000	0.000000	0.000000	0.000000	0.000000	0.000000	0.000000	0.000000	0.000000	0.000000	0.000000	0.000000	0.000000	0.000000	1.690206	470.807414	-42.045208	0.199289	0.000000	-0.892638	-0.000000	9.330303	0.000000	2.086143	432.728163	38.248837	0.229780	0.000000	-1.595046	-0.000000	-9.863319	-0.000000
1.776000	0.000000	0.000000	0.000000	0.000000	0.000000	0.000000	0.000000	0.000000	0.000000	0.000000	0.000000	0.000000	0.000000	0.000000	0.000000	0.000000	0.000000	0.000000	0.000000	0.000000	0.000000	0.000000	0.000000	0.000000	0.000000	0.000000	0.000000	1.702542	470.664510	-41.910715	0.199292	0.000000	-0.892648	-0.000000	9.331266	0.000000	2.104400	432.862119	38.145023	0.229772	0.000000	-1.595022	-0.000000	-9.869531	-0.000000
1.776500	0.000000	0.000000	0.000000	0.000000	0.000000	0.000000	0.000000	0.000000	0.000000	0.000000	0.000000	0.000000	0.000000	0.000000	0.000000	0.000000	0.000000	0.000000	0.000000	0.000000	0.000000	0.000000	0.000000	0.000000	0.000000	0.000000	0.000000	1.715126	470.524570	-41.775776	0.199295	0.000000	-0.892659	-0.000000	9.332295	0.000000	2.121604	432.995929	38.040911	0.229765	0.000000	-1.594998	-0.000000	-9.875809	-0.000000
1.777000	0.000000	0.000000	0.000000	0.000000	0.000000	0.000000	0.000000	0.000000	0.000000	0.000000	0.000000	0.000000	0.000000	0.000000	0.000000	0.000000	0.000000	0.000000	0.000000	0.000000	0.000000	0.000000	0.000000	0.000000	0.000000	0.000000	0.000000	1.728050	470.387725	-41.640404	0.199296	0.000000	-0.892669	-0.000000	9.333390	0.000000	2.137761	433.129528	37.936556	0.229757	0.000000	-1.594974	-0.000000	-9.882145	-0.000000
1.777500	0.000000	0.000000	0.000000	0.000000	0.000000	0.000000	0.000000	0.000000	0.000000	0.000000	0.000000	0.000000	0.000000	0.000000	0.000000	0.000000	0.000000	0.000000	0.000000	0.000000	0.000000	0.000000	0.000000	0.000000	0.000000	0.000000	0.000000	1.741410	470.254095	-41.504614	0.199298	0.000000	-0.892681	-0.000000	9.334552	0.000000	2.152880	433.262841	37.832015	0.229750	0.000000	-1.594950	-0.000000	-9.888530	-0.000000
1.778000	0.000000	0.000000	0.000000	0.000000	0.000000	0.000000	0.000000	0.000000	0.000000	0.000000	0.000000	0.000000	0.000000	0.000000	0.000000	0.000000	0.000000	0.000000	0.000000	0.000000	0.000000	0.000000	0.000000	0.000000	0.000000	0.000000	0.000000	1.755307	470.123790	-41.368428	0.199299	0.000000	-0.892693	-0.000000	9.335781	0.000000	2.166979	433.395785	37.727338	0.229744	0.000000	-1.594926	-0.000000	-9.894958	-0.000000
1.778500	0.000000	0.000000	0.000000	0.000000	0.000000	0.000000	0.000000	0.000000	0.000000	0.000000	0.000000	0.000000	0.000000	0.000000	0.000000	0.000000	0.000000	0.000000	0.000000	0.000000	0.000000	0.000000	0.000000	0.000000	0.000000	0.000000	0.000000	1.769846	469.996922	-41.231866	0.199299	0.000000	-0.892705	-0.000000	9.337076	0.000000	2.180086	433.528268	37.622569	0.229738	0.000000	-1.594902	-0.000000	-9.901420	-0.000000
